<svg width="51" height="11" viewBox="0 0 51 11" fill="none" xmlns="http://www.w3.org/2000/svg">
<rect width="12" height="11" rx="2" fill="#111822"/>
<path d="M3.81 2.53H5.21V7.78C5.21 8.66 4.79667 9.1 3.97 9.1H2.73C1.90333 9.1 1.49 8.66 1.49 7.78V2.53H2.89V7.9C2.89 7.95333 2.90667 8 2.94 8.04C2.98 8.08 3.02667 8.1 3.08 8.1H3.62C3.67333 8.1 3.71667 8.08 3.75 8.04C3.79 8 3.81 7.95333 3.81 7.9V2.53Z" fill="#4782DA"/>
<path d="M7.9 6.35V9H6.5V2.53H8.99C9.81667 2.53 10.23 2.97 10.23 3.85V4.6C10.23 5.13333 10.04 5.47333 9.66 5.62C9.99333 5.74 10.16 6.01333 10.16 6.44V9H8.76V6.55C8.76 6.41667 8.69667 6.35 8.57 6.35H7.9ZM7.9 3.48V5.37H8.64C8.69333 5.37 8.73667 5.35 8.77 5.31C8.81 5.27 8.83 5.22333 8.83 5.17V3.68C8.83 3.62667 8.81 3.58 8.77 3.54C8.73667 3.5 8.69333 3.48 8.64 3.48H7.9Z" fill="#4782DA"/>
<path d="M15.646 10H13.686V2.65C13.686 1.418 14.2647 0.802 15.422 0.802H16.458C17.1393 0.802 17.6247 1.026 17.914 1.474C18.1847 1.026 18.67 0.802 19.37 0.802H20.406C21.5633 0.802 22.142 1.418 22.142 2.65V10H20.182V2.482C20.182 2.40733 20.154 2.342 20.098 2.286C20.0513 2.23 19.9907 2.202 19.916 2.202H19.16C19.0853 2.202 19.02 2.23 18.964 2.286C18.9173 2.342 18.894 2.40733 18.894 2.482V10H16.934V2.482C16.934 2.40733 16.906 2.342 16.85 2.286C16.8033 2.23 16.7427 2.202 16.668 2.202H15.912C15.8373 2.202 15.772 2.23 15.716 2.286C15.6693 2.342 15.646 2.40733 15.646 2.482V10ZM28.4731 4.876V8.292C28.4731 9.524 27.8944 10.14 26.7371 10.14H25.1551C23.9977 10.14 23.4191 9.524 23.4191 8.292V4.876C23.4191 3.644 23.9977 3.028 25.1551 3.028H26.7371C27.8944 3.028 28.4731 3.644 28.4731 4.876ZM26.5971 8.684V4.47C26.5971 4.39533 26.5691 4.33 26.5131 4.274C26.4664 4.218 26.4057 4.19 26.3311 4.19H25.5611C25.4864 4.19 25.4211 4.218 25.3651 4.274C25.3184 4.33 25.2951 4.39533 25.2951 4.47V8.684C25.2951 8.75867 25.3184 8.824 25.3651 8.88C25.4211 8.936 25.4864 8.964 25.5611 8.964H26.3311C26.4057 8.964 26.4664 8.936 26.5131 8.88C26.5691 8.824 26.5971 8.75867 26.5971 8.684ZM32.8991 3.168H34.7191L33.2211 10H30.7431L29.2451 3.168H31.0651L31.9891 8.474L32.8991 3.168ZM37.4363 2.314C37.2403 2.51 37.0023 2.608 36.7223 2.608C36.4423 2.608 36.1997 2.51 35.9943 2.314C35.789 2.10867 35.6863 1.866 35.6863 1.586C35.6863 1.29667 35.789 1.054 35.9943 0.857999C36.1997 0.652666 36.4423 0.55 36.7223 0.55C37.0023 0.55 37.2403 0.652666 37.4363 0.857999C37.6417 1.054 37.7443 1.29667 37.7443 1.586C37.7443 1.87533 37.6417 2.118 37.4363 2.314ZM35.7843 10V3.168H37.6603V10H35.7843ZM42.2957 3.028C43.453 3.028 44.0317 3.644 44.0317 4.876V7.088H40.8537V8.516C40.8537 8.59067 40.877 8.656 40.9237 8.712C40.9797 8.768 41.045 8.796 41.1197 8.796H41.8897C41.9643 8.796 42.025 8.768 42.0717 8.712C42.1277 8.656 42.1557 8.59067 42.1557 8.516V7.76H44.0317V8.292C44.0317 9.524 43.453 10.14 42.2957 10.14H40.7137C39.5563 10.14 38.9777 9.524 38.9777 8.292V4.876C38.9777 3.644 39.5563 3.028 40.7137 3.028H42.2957ZM40.8537 5.856H42.1557V4.596C42.1557 4.52133 42.1277 4.456 42.0717 4.4C42.025 4.344 41.9643 4.316 41.8897 4.316H41.1197C41.045 4.316 40.9797 4.344 40.9237 4.4C40.877 4.456 40.8537 4.52133 40.8537 4.596V5.856ZM48.2816 5.716C49.439 5.716 50.0176 6.332 50.0176 7.564V8.292C50.0176 9.524 49.439 10.14 48.2816 10.14H46.7276C45.5703 10.14 44.9916 9.524 44.9916 8.292V7.858H46.7276V8.474C46.7276 8.54867 46.751 8.614 46.7976 8.67C46.8536 8.726 46.919 8.754 46.9936 8.754H48.1416C48.2163 8.754 48.277 8.726 48.3236 8.67C48.3796 8.614 48.4076 8.54867 48.4076 8.474V7.634C48.4076 7.55933 48.3796 7.494 48.3236 7.438C48.277 7.382 48.2163 7.354 48.1416 7.354H46.6996C45.5423 7.354 44.9636 6.738 44.9636 5.506V4.876C44.9636 3.644 45.5423 3.028 46.6996 3.028H48.1696C49.327 3.028 49.9056 3.644 49.9056 4.876V5.128H48.1696V4.694C48.1696 4.61933 48.1416 4.554 48.0856 4.498C48.039 4.442 47.9783 4.414 47.9036 4.414H46.8396C46.765 4.414 46.6996 4.442 46.6436 4.498C46.597 4.554 46.5736 4.61933 46.5736 4.694V5.436C46.5736 5.51067 46.597 5.576 46.6436 5.632C46.6996 5.688 46.765 5.716 46.8396 5.716H48.2816Z" fill="white"/>
</svg>
