<?xml version="1.0" standalone="no"?>
<svg xmlns="http://www.w3.org/2000/svg" viewBox="0 0 125.984 36" width="125.984" height="36"><g fill="#2d22a2" color="#2d22a2" transform="translate(0 6) scale(0.4615385)"><svg width="44.0" height="52.0" x="0.0" y="0.0" viewBox="0 0 44 52"><path fill="currentColor" fill-rule="evenodd" d="M28.965 20.66c-.215.472-.215.343-.644.515-.43.172-.903.13-1.075-.172a.82.82 0 0 1 .258-1.031c.301-.258.817-.215 1.203-.086.387.129.258.774.258.774m-13.924-.774c.43-.129.903-.172 1.204.086.3.258.43.73.257 1.031-.171.344-.644.344-1.074.172-.43-.172-.473-.043-.688-.515.043 0-.085-.645.301-.774m21.015 5.802c-.387.258-.129.73.086 1.804.172 1.075-.387 1.462-.73 1.934-.344.473-.387-.171-.774-.171-.344-.044-.043.945-.086 1.59-.043.644-.516.258-.86.215-.343-.043-.214.214-.343.816-.13.602-.13.215-.516.558-.387.345-.129.645-.129 1.29-.043.688-.043.73-.129 1.933-.043 1.204-.558 1.505-.644 2.15-.086.644-.602 1.203-.86.859-.258-.344-.3-1.16-.387-1.805-.129-.644-.386.989-.515 1.547-.13.559-.645.172-.645-.129 0-.343-.3.258-.473.645-.172.386-.472.3-.558-.086-.043-.387-.43.129-.602.3-.172.172-.387.56-.73.56-.344 0-.173.601-.344 1.031-.13.43-.301.258-.645.129-.344-.172-.215.344-.387.86-.172.558-.687.43-.902.17-.215-.257-.258 1.075-.43 1.677-.172.559-.387-.086-.989 1.117-.558 1.204-.472 1.419-.816 2.622-.215.645-.559.86-.86.946-.3-.086-.687-.301-.86-.946-.343-1.203-.257-1.418-.816-2.622-.558-1.203-.816-.558-.988-1.117-.172-.558-.215-1.891-.43-1.676-.215.258-.73.344-.902-.172-.172-.558-.043-1.031-.387-.86-.344.172-.473.345-.645-.128-.129-.43.043-1.031-.343-1.031-.344 0-.56-.388-.731-.56-.172-.171-.559-.687-.602-.3-.043.387-.386.472-.558.086-.172-.387-.473-.988-.473-.645 0 .344-.473.688-.645.13-.129-.56-.387-2.192-.515-1.548-.13.645-.172 1.418-.387 1.805-.258.344-.774-.215-.86-.86-.086-.644-.601-.902-.644-2.149-.043-1.202-.086-1.289-.13-1.933-.042-.688.259-.988-.128-1.29-.387-.343-.387.044-.516-.558-.129-.602 0-.86-.344-.816-.344.043-.816.43-.86-.215-.042-.645.259-1.634-.085-1.59-.344.043-.387.687-.774.171-.344-.472-.902-.902-.73-1.934.172-1.074.472-1.546.086-1.804-.387-.258-.86-.559-.559-1.118.3-.558-.172-1.074.602-1.89.773-.817.773-.645.644-1.806-.129-1.16-.43-1.074-.043-1.719.387-.644.258-.386.473-1.074.172-.688.774-.902.817-.129 0 0 .171 1.375.085 2.235-.128.86-.128.644.215 1.203.344.559.301.172.516 1.29.215 1.117.688.43 1.203 1.375.516.902.172.816.903 1.203.73.387.988-.086 1.59.86.602.944.645.343.73 1.504.086.687.086 1.074.172 1.289.086-.215.215-.473.387-.73 1.16-1.72 1.762-2.193 1.633-3.009-.129-.86.043-.988-.773-1.203-.817-.258-.688-.774-1.247-.473-.558.258-.601.3-.816.258 0 0 .172-.473-.258-.516-.43-.043-.86-.344-.559-.516.258-.172-.257-.816-.687-.988-.43-.172-.774-.903-.645-1.332.13-.43.301-.774.774-.387.472.344.988-.129 1.332.645.344.773.688 1.074 1.547 1.203.387.043.645 0 .86 0 .257-.043.43-.086.644 0 .344.172.645.86.774.387s.043-.688-.13-.903c-.171-.258-.558-.344-.3-.86.258-.472.215-.859-.387-1.46-.601-.645-1.246-1.376-1.805-1.118-.558.258-.473.73-1.289.774-.774.043-1.89.386-2.106-.473 0 0 0-1.332.73-1.29.731.044.903.387 1.29-.171.387-.559 1.461-1.805 2.836-1.29 1.376.56 2.536 2.106 2.536 3.18.043 1.075.215 1.763.258 2.235.043.473.344.989-.344 2.235-.645 1.246-.387 1.461-.387 2.235 0 .773-.172 1.89-.387 3.094-.214 1.203-.086.688.688.946.774.257 1.074-.043 1.633-.086.387 0 .774-.087.989-.13.214.043.558.087.988.13.559.043.86.343 1.633.086.774-.258.902.257.688-.946-.215-1.203-.387-2.32-.387-3.094s.258-.989-.387-2.235-.387-1.805-.344-2.235c.043-.472.258-1.16.258-2.234.043-1.075 1.16-2.622 2.536-3.18 1.375-.56 2.45.687 2.836 1.289.387.558.559.172 1.29.172.73-.043.73 1.289.73 1.289-.215.902-1.29.516-2.106.473-.774-.043-.73-.516-1.29-.774-.558-.258-1.16.473-1.804 1.117-.645.645-.688.989-.387 1.462.258.472-.129.601-.3.86-.173.257-.259.472-.13.902.13.472.43-.215.774-.387.172-.086.387-.043.644 0 .215.043.516.086.86 0 .86-.13 1.203-.43 1.547-1.203.344-.774.86-.258 1.332-.645.473-.344.688-.043.774.387.129.43-.215 1.16-.645 1.332-.43.172-.945.773-.687.988.257.172-.13.473-.559.516-.43.043-.258.516-.258.516-.215.043-.258 0-.816-.258-.56-.258-.43.258-1.247.473-.816.257-.644.386-.773 1.203-.13.86.472 1.29 1.633 3.008.172.258.3.473.387.73.086-.257.129-.6.171-1.288.086-1.16.13-.56.731-1.505.602-.945.86-.472 1.59-.86.73-.386.387-.3.903-1.202.515-.903.988-.258 1.203-1.376.215-1.117.172-.73.516-1.289.343-.559.343-.344.215-1.203-.13-.86.085-2.235.085-2.235.043-.773.645-.559.817.129.172.688.043.473.473 1.074.386.645.129.56-.043 1.72-.13 1.16-.172.988.644 1.804.774.817.301 1.333.602 1.891.559.559.086.86-.3 1.118M8.036 4.158c.859-1.376 1.117-1.935 1.847-1.161.73.773.774 1.203 1.848 2.88 1.075 1.675 1.977 1.89 1.891 2.75-.129.902.043 1.289-1.074 1.761-1.118.43-1.72.172-1.762-.773-.043-.946.473-.645.258-1.59-.258-.946-.387-2.063-.774-2.32-.387-.259-1.16-.259-1.246.6 0 0-.301 1.376-.086 2.236.215.86-.086 2.277-.43 1.847-.387-.43-.902-.515-.816-2.45 0-1.933-.516-2.406.343-3.78M32.06 5.875c1.074-1.676 1.117-2.106 1.847-2.88.731-.773.989-.214 1.848 1.161.86 1.375.344 1.891.387 3.782.086 1.934-.43 1.977-.816 2.45-.387.43-.645-.989-.43-1.848.215-.86-.086-2.235-.086-2.235-.086-.86-.86-.86-1.246-.602-.387.258-.516 1.375-.774 2.32-.258.946.3.645.258 1.59-.043.946-.645 1.204-1.762.774-1.117-.43-.946-.859-1.074-1.762-.172-.902.773-1.117 1.848-2.75m10.056 19.339c-.688-1.031-.903-1.16-.946-2.063-.043-.945.086-1.461-.773-2.45-.86-.988-1.075-1.46-.946-2.75.13-1.29-.043-3.137-.515-3.739 0 0-.172 1.16-.387 1.418-.215.301-.258-1.59-.387-2.062-.172-.473-.387-1.118-.86-1.376-.472-.3-.644-1.074-.644-1.074S38.506 2.395 34.036.461c0 0-1.074-.387-1.934 1.547-.859 1.934-3.652 3.138-4.383 4.126-.73.988-1.117 1.117-1.203 1.117-.13 0-3.052-.73-4.642-.73-1.59 0-4.512.73-4.64.73-.13 0-.474-.129-1.204-1.117s-3.524-2.192-4.384-4.126C10.786.074 9.712.461 9.712.461 5.286 2.395 7.091 11.12 7.091 11.12s-.172.774-.645 1.074c-.472.301-.687.903-.86 1.376-.171.472-.214 2.363-.386 2.062-.215-.3-.387-1.418-.387-1.418-.473.602-.644 2.45-.515 3.74.128 1.288-.086 1.804-.946 2.75-.86.988-.73 1.504-.773 2.45-.043.945-.258 1.073-.946 2.062C.945 26.246 0 28.137 0 28.137s.387.172.73.301c.344.129.602.387.946.516s.387.344.688.515c.3.215 0 .387-.172.774s.258.602.773.86c.516.257.602.472.86 1.03.258.516.3 1.118.86 1.29.558.215.386.559.472 1.118.086.515.387.687 1.074.816.645.129.344.387.387.989.043.6.645.73 1.547.687.903-.043.387.3 1.762 1.59s3.481 3.008 5.544 5.63c2.02 2.621 5.071 7.735 6.446 7.735 1.376 0 4.384-5.114 6.447-7.735 2.02-2.622 4.168-4.298 5.543-5.63 1.376-1.29.86-1.633 1.762-1.59.903.043 1.505-.086 1.548-.687.043-.602-.301-.86.386-.989.645-.13.989-.3 1.075-.816.086-.516-.086-.903.472-1.118.56-.215.602-.774.86-1.29.258-.515.344-.773.86-1.03.515-.258.945-.473.773-.86-.172-.387-.43-.559-.172-.774.3-.214.387-.43.688-.515.343-.13.601-.43.945-.516.344-.129.73-.301.73-.301s-1.03-1.934-1.718-2.922m-13.194 5.114c-.085.386-.258.688-.258.988 0 .688-.43.731-1.117.387-.688-.344-.258.559-.387 1.418-.128.86-1.203 1.676-1.504 2.235-.343.559-.86.043-.902-.559-.044-.601.472-1.762-.215-2.965-.559-1.031-2.149-.645-2.622-.516-.472-.129-2.063-.472-2.621.516-.688 1.203-.172 2.364-.215 2.965-.043.602-.601 1.118-.902.56-.344-.56-1.376-1.376-1.504-2.236-.13-.86.3-1.719-.387-1.418-.688.344-1.118.258-1.118-.387 0-.3-.171-.602-.258-.988-.257-.043-.472-.043-.558.043-.172.215-.387 1.074-.172 2.062.258.99.559 1.161 1.203 1.978.645.816 1.16.558 1.59 1.719.43 1.203.258 1.46 1.032 1.762.773.3.86.386 1.632.3.774-.086.774.043 1.333.13.258.042.43 0 .516 0 .129-.044.215-.044.3 0 .044 0 .087.042.13.085.043-.043.085-.086.128-.086.086-.043.172-.043.3 0 .13 0 .26.043.517 0 .558-.043.558-.172 1.332-.129.774.086.86 0 1.633-.3.774-.302.601-.56 1.031-1.762.43-1.204.99-.903 1.59-1.72.645-.816.946-.988 1.204-1.977.258-.988 0-1.847-.172-2.062-.086-.129-.3-.086-.559-.043"></path></svg></g><path fill="#ffffff" fill-rule="nonzero" d="M7.52 18.32L7.52 17.25Q6.02 18.49 4.25 18.49L4.25 18.49Q2.36 18.49 1.28 17.21L1.28 17.21Q0.25 15.97 0.25 13.80L0.25 13.80L0.25 9.15Q0.25 6.81 0.15 6.46Q0.05 6.12 0 6.02L0 6.02Q0.54 6.07 1.13 6.07L1.13 6.07L2.10 6.07Q2.48 6.07 3.12 6.04L3.12 6.04L3.12 12.82Q3.12 15.23 4.43 15.62L4.43 15.62Q4.83 15.74 5.30 15.74L5.30 15.74Q6.68 15.74 7.52 14.73L7.52 14.73L7.52 6.07L10.43 6.07L10.43 16.82Q10.43 17.85 10.52 18.32L10.52 18.32L7.52 18.32ZM16.93 9.79L16.93 17.00Q16.93 18.01 16.98 18.32L16.98 18.32L14.06 18.32L14.06 6.07L16.93 6.07L16.93 6.97Q17.93 5.84 19.03 5.84Q20.12 5.84 20.75 6.11L20.75 6.11L20.54 9.26L20.50 9.29Q20.09 8.57 18.80 8.57L18.80 8.57Q18.30 8.57 17.79 8.90Q17.29 9.23 16.93 9.79L16.93 9.79ZM25.35 10.08L25.35 14.93Q25.35 17.57 25.44 18.32L25.44 18.32L22.38 18.32L22.38 6.07L25.35 6.07L25.35 7.13Q26.95 5.84 28.64 5.84L28.64 5.84Q30.63 5.84 31.54 7.56L31.54 7.56Q32.44 6.63 33.04 6.34L33.04 6.34Q34.03 5.84 35.03 5.84Q36.04 5.84 36.74 6.18Q37.44 6.52 37.90 7.14L37.90 7.14Q38.82 8.39 38.82 10.58L38.82 10.58L38.82 15.25Q38.82 17.23 38.88 17.63Q38.94 18.02 39.04 18.14Q39.14 18.26 39.21 18.35L39.21 18.35L39.19 18.40Q38.25 18.32 37.80 18.32L37.80 18.32L36.93 18.32Q36.49 18.32 35.86 18.35L35.86 18.35L35.86 12.01Q35.86 9.27 35.02 8.75L35.02 8.75Q34.73 8.59 34.35 8.59Q33.97 8.59 33.68 8.68Q33.39 8.77 33.13 8.96L33.13 8.96Q32.70 9.28 32.14 10.21L32.14 10.21Q32.16 10.30 32.16 10.39Q32.16 10.49 32.16 13.49Q32.16 16.49 32.30 18.32L32.30 18.32Q31.30 18.32 30.60 18.32Q29.91 18.32 29.27 18.35L29.27 18.35L29.27 12Q29.27 10.09 29.04 9.52Q28.82 8.94 28.56 8.77Q28.30 8.59 27.93 8.59L27.93 8.59Q26.38 8.59 25.35 10.08L25.35 10.08ZM41.33 12.26L41.33 12.26Q41.33 10.97 41.77 9.79Q42.21 8.61 43.03 7.73L43.03 7.73Q44.82 5.84 47.68 5.84L47.68 5.84Q50.53 5.84 52.21 7.63L52.21 7.63Q53.81 9.34 53.81 12.07L53.81 12.07Q53.81 14.80 52.16 16.59L52.16 16.59Q50.41 18.49 47.53 18.49L47.53 18.49Q44.55 18.49 42.87 16.63L42.87 16.63Q41.33 14.93 41.33 12.26ZM44.18 12.19L44.18 12.19Q44.18 12.93 44.43 13.62Q44.67 14.31 45.13 14.80L45.13 14.80Q46.10 15.87 47.68 15.87L47.68 15.87Q49.15 15.87 49.99 14.82L49.99 14.82Q50.81 13.82 50.81 12.20L50.81 12.20Q50.81 10.56 49.97 9.55L49.97 9.55Q49.07 8.47 47.50 8.47L47.50 8.47Q45.90 8.47 45 9.62L45 9.62Q44.18 10.68 44.18 12.19ZM59.41 18.32L54.48 6.07L57.80 6.07L60.66 14.13L63.42 6.07L66.67 6.07L61.83 18.32L59.41 18.32ZM70.59 4.48L67.96 2.58Q68.89 1.11 69.91 0L69.91 0L72.43 1.98Q71.93 2.60 71.50 3.20L71.50 3.20Q71.50 3.20 70.59 4.48L70.59 4.48ZM71.04 6.07L71.04 17.00Q71.04 18.01 71.09 18.32L71.09 18.32L68.11 18.32L68.11 6.07L71.04 6.07ZM73.76 12.29L73.76 12.29Q73.76 10.92 74.23 9.75Q74.70 8.58 75.55 7.70L75.55 7.70Q77.38 5.84 80.33 5.84L80.33 5.84Q82.83 5.84 84.34 7.49L84.34 7.49Q85.83 9.08 85.83 11.50L85.83 11.50Q85.83 12.42 85.69 12.76L85.69 12.76Q84.52 13.09 80.92 13.09L80.92 13.09L76.79 13.09Q77.10 14.34 78.21 15.04Q79.32 15.74 81.11 15.74L81.11 15.74Q82.97 15.74 84.30 15.07L84.30 15.07Q84.66 14.89 84.83 14.74L84.83 14.74Q84.81 15.23 84.77 15.75L84.77 15.75L84.64 17.58Q83.75 18.19 81.76 18.42L81.76 18.42Q81.18 18.49 80.64 18.49L80.64 18.49Q77.66 18.49 75.71 16.76L75.71 16.76Q73.76 15.01 73.76 12.29ZM82.71 10.82L82.71 10.82Q82.23 8.30 79.97 8.30L79.97 8.30Q78.19 8.30 77.26 9.83L77.26 9.83Q76.98 10.30 76.83 10.86L76.83 10.86Q77.11 10.88 77.52 10.89L77.52 10.89L78.39 10.89Q78.82 10.90 79.22 10.90L79.22 10.90L79.89 10.90Q80.48 10.90 81.06 10.89L81.06 10.89L82.02 10.85Q82.41 10.84 82.71 10.82ZM92.50 18.49L92.50 18.49Q89.19 18.49 87.52 17.29L87.52 17.29Q87.54 16.93 87.59 16.49L87.59 16.49L87.69 15.64Q87.79 14.81 87.81 14.61Q87.83 14.40 87.84 14.38Q87.86 14.37 88.03 14.57Q88.21 14.78 88.70 15.07Q89.19 15.36 89.84 15.59L89.84 15.59Q91.23 16.07 92.74 16.07L92.74 16.07Q94.77 16.07 94.77 14.72L94.77 14.72Q94.77 14.29 94.38 14.07L94.38 14.07Q93.69 13.72 92.35 13.54Q91.01 13.36 90.15 13.01Q89.30 12.66 88.76 12.16L88.76 12.16Q87.76 11.24 87.76 9.74L87.76 9.74Q87.76 7.91 89.17 6.87L89.17 6.87Q90.56 5.84 93.02 5.84L93.02 5.84Q95.46 5.84 97.18 7.22L97.18 7.22Q97.10 7.52 97.01 7.80L97.01 7.80Q96.74 8.58 96.61 8.92L96.61 8.92L96.34 9.61Q96.32 9.70 96.30 9.70L96.30 9.70Q96.28 9.70 96.12 9.46L96.12 9.46Q95.38 8.60 93.82 8.33L93.82 8.33Q93.34 8.24 92.84 8.24L92.84 8.24Q90.70 8.24 90.70 9.53L90.70 9.53Q90.70 9.97 91.15 10.21L91.15 10.21Q91.98 10.65 93.43 10.86Q94.88 11.07 95.63 11.43Q96.38 11.79 96.83 12.29L96.83 12.29Q97.68 13.21 97.68 14.72L97.68 14.72Q97.68 16.37 96.35 17.40L96.35 17.40Q94.97 18.49 92.50 18.49Z" transform="translate(28.308, 8.754)"></path></svg>