<svg width="16" height="16" viewBox="0 0 16 16" fill="none" xmlns="http://www.w3.org/2000/svg">
<rect width="16" height="16" rx="2" fill="#1B2635"/>
<path d="M5.372 4.236H7.052V10.536C7.052 11.592 6.556 12.12 5.564 12.12H4.076C3.084 12.12 2.588 11.592 2.588 10.536V4.236H4.268V10.68C4.268 10.744 4.288 10.8 4.328 10.848C4.376 10.896 4.432 10.92 4.496 10.92H5.144C5.208 10.92 5.26 10.896 5.3 10.848C5.348 10.8 5.372 10.744 5.372 10.68V4.236ZM9.88156 8.82V12H8.20156V4.236H11.1896C12.1816 4.236 12.6776 4.764 12.6776 5.82V6.72C12.6776 7.36 12.4496 7.768 11.9936 7.944C12.3936 8.088 12.5936 8.416 12.5936 8.928V12H10.9136V9.06C10.9136 8.9 10.8376 8.82 10.6856 8.82H9.88156ZM9.88156 5.376V7.644H10.7696C10.8336 7.644 10.8856 7.62 10.9256 7.572C10.9736 7.524 10.9976 7.468 10.9976 7.404V5.616C10.9976 5.552 10.9736 5.496 10.9256 5.448C10.8856 5.4 10.8336 5.376 10.7696 5.376H9.88156Z" fill="#4782DA"/>
</svg>
